<?xml version="1.0" encoding="utf-8"?>
<!-- Generator: Adobe Illustrator 19.1.0, SVG Export Plug-In . SVG Version: 6.00 Build 0)  -->
<svg version="1.1" id="dribbble-ball-mark_xA0_Image_1_"
	 xmlns="http://www.w3.org/2000/svg" xmlns:xlink="http://www.w3.org/1999/xlink" x="0px" y="0px" viewBox="0 0 198 196"
	 style="enable-background:new 0 0 198 196;" xml:space="preserve">
<style type="text/css">
	.st0{fill:#FFFFFF;}
</style>
<path class="st0" d="M7.1,99.2C7.2,47.8,49.2,6.5,100.2,7c50.1,0.5,91.2,41.4,91.2,92.2c0,50.2-40.6,92.1-92.1,92.1
	C48.2,191.4,7.2,149.9,7.1,99.2z M50.9,161.2c0.3,0.3,0.3,0.4,0.4,0.4c11.7,8.9,24.8,14.3,39.4,15.9c13.1,1.4,25.7-0.3,38-5.1
	c1-0.4,1.6-0.8,1.2-2.1c-0.2-0.6-0.2-1.3-0.4-2c-3.7-18.8-9-37.2-15.8-55.1c-0.1-0.4-0.3-0.7-0.5-1.2
	C86.8,121.5,65.2,136.7,50.9,161.2z M40.7,151.7c16.5-25,38-43.7,67.2-52.8c-2.1-4.3-4.1-8.4-6.1-12.6c-0.1-0.3-0.8-0.5-1.1-0.4
	c-1.6,0.4-3.1,0.9-4.6,1.3c-23.2,6.2-46.9,9.3-71,9.6c-1.5,0-3,0-4.5,0C19,114.4,29.2,141.9,40.7,151.7z M22.1,83.2
	c24.8-0.2,49-3.4,72.9-9.6C86,57.8,76.3,42.7,65.7,28C42.7,39.7,28.1,57.9,22.1,83.2z M80.8,22.7c10.8,14.9,20.7,30.2,29.4,46.2
	c16-6.3,30.3-14.8,41.4-28.5C130.8,23,107.4,17.2,80.8,22.7z M116.4,80.5c2.2,5,4.4,9.9,6.5,14.8c0.3,0.7,0.7,0.6,1.2,0.6
	c3.2-0.3,6.4-0.6,9.6-0.7c11.3-0.6,22.6,0.1,33.8,1.7c3.5,0.5,6.9,1.1,10.5,1.6c-0.4-18.3-6.3-34.6-17.7-48.9
	C148.3,63.9,133.2,73.4,116.4,80.5z M143.3,164.6c18.5-13.1,29.8-30.5,33.7-52.6c-9.1-4.2-36.6-6.2-49-3.4
	C134.5,126.7,139.8,145.3,143.3,164.6z"/>
</svg>
