<?xml version="1.0" encoding="utf-8"?>
<!-- Generator: Adobe Illustrator 19.1.0, SVG Export Plug-In . SVG Version: 6.00 Build 0)  -->
<svg version="1.1" id="Layer_1" xmlns="http://www.w3.org/2000/svg" xmlns:xlink="http://www.w3.org/1999/xlink" x="0px" y="0px"
	 viewBox="0 0 280.5 271.5" style="enable-background:new 0 0 280.5 271.5;" xml:space="preserve">
<style type="text/css">
	.st0{fill-rule:evenodd;clip-rule:evenodd;fill:#FFFFFF;}
</style>
<path class="st0" d="M142.5,10.9c-70.8,0-128.2,57.4-128.2,128.2c0,56.6,36.7,104.7,87.7,121.6c6.4,1.2,8.7-2.8,8.7-6.2
	c0-3-0.1-11.1-0.2-21.8c-35.7,7.7-43.2-17.2-43.2-17.2c-5.8-14.8-14.2-18.8-14.2-18.8c-11.6-8,0.9-7.8,0.9-7.8
	c12.9,0.9,19.6,13.2,19.6,13.2c11.4,19.6,30,13.9,37.3,10.7c1.2-8.3,4.5-13.9,8.1-17.1c-28.5-3.2-58.4-14.2-58.4-63.4
	c0-14,5-25.4,13.2-34.4c-1.3-3.2-5.7-16.3,1.3-33.9c0,0,10.8-3.4,35.3,13.1c10.2-2.8,21.2-4.3,32.1-4.3c10.9,0,21.9,1.5,32.1,4.3
	c24.5-16.6,35.2-13.1,35.2-13.1c7,17.6,2.6,30.7,1.3,33.9c8.2,9,13.2,20.4,13.2,34.4c0,49.2-30,60.1-58.5,63.3
	c4.6,4,8.7,11.8,8.7,23.7c0,17.1-0.2,31-0.2,35.2c0,3.4,2.3,7.4,8.8,6.2c50.9-17,87.6-65,87.6-121.6
	C270.7,68.3,213.3,10.9,142.5,10.9z"/>
</svg>
