<?xml version="1.0" encoding="utf-8"?>
<!-- Generator: Adobe Illustrator 19.1.0, SVG Export Plug-In . SVG Version: 6.00 Build 0)  -->
<svg version="1.1" id="Layer_1" xmlns="http://www.w3.org/2000/svg" xmlns:xlink="http://www.w3.org/1999/xlink" x="0px" y="0px"
	 viewBox="0 0 336.7 560" style="enable-background:new 0 0 336.7 560;" xml:space="preserve">
<g id="fgnsBT_1_">
	<g>
		<path fill="#fff" d="M221,269.6c-26.2,27.4-49.9,54-75.8,78.1l-13,12.3c-28.6-16.9-112.5-74.8-112.5-74.8l-0.2-15.8L18.7,28.7
			C89.2,112.7,154.2,190.1,221,269.6z"/>
		<path fill="#fff" d="M108.8,560c-28.9-87.4-55.5-168-84.4-255.6c63,42.7,120.3,81.6,179.2,121.5C172.2,470.4,142.3,512.7,108.8,560z"/>
		<path fill="#fff" d="M228.7,97.4c0,56.5,0,104,0,160c-29.8-35.5-55.2-65.6-84.9-101C170.6,137.7,196.7,119.6,228.7,97.4z"/>
		<path fill="#fff" d="M134.2,145.4c-25.5-30.8-58-68.1-83.8-102.6L60,0c27.4,46.3,56.3,92.3,83.7,138.6C139.8,141.4,138.1,143,134.2,145.4z"/>
		<path fill="#fff" d="M241.3,162c0-20.7,0-38.3,0-63.9c26.3,21.9,48.6,40.5,76.7,63.9C288.2,162,266.6,162,241.3,162z"/>
	</g>
</g>
</svg>
