<?xml version="1.0" encoding="utf-8"?>
<!-- Generator: Adobe Illustrator 19.1.0, SVG Export Plug-In . SVG Version: 6.00 Build 0)  -->
<svg version="1.1" id="Layer_1" xmlns="http://www.w3.org/2000/svg" xmlns:xlink="http://www.w3.org/1999/xlink" x="0px" y="0px"
	 viewBox="0 0 76.8 50.8" style="enable-background:new 0 0 76.8 50.8;" xml:space="preserve">
<style type="text/css">
	.st0{fill:#009FE3;}
</style>
<path class="st0" d="M49.5,3.3c0.6,0.1,0.9,0.2,1.7,0.4C53,4.3,54.9,5.2,56,5.9c2.2,1.5,4.1,3.6,5.3,6.2c0.6,1.2,0.9,2.1,1.2,3.3
	c0.3,1.2,0.4,2.2,0.4,3.5c0,0.8,0,1-0.1,1.8c-0.2,1.8-0.2,2,0,2.3c0.2,0.3,0.4,0.4,1.2,0.6c1.6,0.4,2,0.6,2.8,0.9
	c2.3,1.1,4.4,3,5.6,5.2c0.5,0.8,1,2.3,1.2,3.2c0.2,0.8,0.2,1.3,0.2,2.2c0,1.2-0.1,2.1-0.4,3.2c-0.8,3.2-2.7,5.7-5.6,7.2
	c-0.6,0.3-1.8,0.8-2.4,1c-1.8,0.6-3.8,0.8-9.7,0.9c-4.2,0.1-29.5,0-36.2-0.1c-4.8-0.1-6.2-0.2-7.3-0.4c-2.5-0.6-3.6-1.3-5.4-3.1
	c-1.4-1.4-2.4-3-3-4.7c-1-2.9-0.7-5.9,0.7-8.8c0.7-1.5,2.2-3.2,3.8-4.4c0.6-0.5,1-0.7,1.9-1.1c0.9-0.4,1.3-0.7,1.5-1
	c0.4-0.4,0.5-0.7,0.5-1.5c0.1-1.8,1-4.3,1.9-5.8c0.4-0.7,0.8-1,1.4-1.7c1.4-1.4,3.1-2.5,4.9-3.2c1.7-0.6,3.8-0.8,5.9-0.5
	c1.4,0.2,2.3,0.5,3.7,1.2l0.9,0.4h0.3c0.3,0,0.6-0.1,0.8-0.3c0.1-0.1,0.4-0.6,0.7-1.1c0.3-0.6,0.7-1.2,0.8-1.4
	c2-2.9,5.6-5.6,9.2-6.6c0.7-0.2,1.6-0.3,3-0.4C46.6,3.2,49.1,3.3,49.5,3.3z M45.8,1.1c-1.1,0.1-2.3,0.2-2.9,0.3
	c-1.4,0.3-3.4,1.1-5,2c-3,1.7-5.3,4-6.8,6.6c-0.1,0.2-0.3,0.5-0.3,0.5c0,0-0.1,0-0.1-0.1c-0.2-0.1-1.1-0.5-1.6-0.7
	c-2.4-0.8-5.4-1-7.8-0.4c-3,0.7-6.3,2.8-8.4,5.5c-0.9,1.2-1.6,2.4-2.1,4.1c-0.4,1.3-0.7,2.6-0.7,3.3c0,0.4,0,0.4-0.9,0.9
	c-1.3,0.6-1.9,1.1-3,1.9c-0.5,0.4-1.4,1.3-1.9,1.9c-1.8,2.1-2.8,4.4-3.2,7.2c-0.1,0.7-0.1,2.5,0,3.2c0.3,2,0.9,3.7,1.9,5.4
	c0.6,1,1.2,1.8,2.1,2.7c2.1,2.1,3.6,3,6.3,3.7c0.7,0.2,1,0.2,1.7,0.3c1.1,0.1,2.7,0.2,6.3,0.3c7,0.1,35.8,0.2,38.7,0.1
	c5.9-0.2,7.4-0.5,10.3-1.9c1.5-0.7,2.5-1.4,3.6-2.6c0.8-0.8,1.1-1.2,1.6-2c1.4-2,2.1-4.4,2.3-7c0.2-2.4-0.3-4.7-1.5-7.1
	c-1.8-3.5-5.4-6.5-9.1-7.4C65,21.8,65,21.8,65,21.7c0,0,0-0.4,0.1-0.9c0.1-0.7,0.1-0.9,0.1-1.9c0-0.9,0-1.3-0.1-1.7
	c-0.3-2.2-0.8-4-1.8-6c-1.6-3.2-3.9-5.8-6.7-7.5c-1.8-1.1-5-2.4-6.6-2.6C49.2,1.1,47.3,1,45.8,1.1z"/>
<path class="st0" d="M38,18.3c-0.3,0.1-0.6,0.3-0.7,0.6c-0.1,0.1-0.1,0.9-0.1,8.1l0,7.9L35.4,33c-1.3-1.4-3.5-3.7-4.1-4.4
	c0,0-1.6,1.4-1.6,1.5c0,0,0.4,0.4,2.6,2.8c0.6,0.7,1.8,1.9,2.6,2.7c0.8,0.8,1.9,2.1,2.6,2.7l1.2,1.2l0.3-0.3c0.2-0.2,1.5-1.5,2.9-3
	c1.4-1.5,3.1-3.3,3.7-3.9c0.6-0.7,1.4-1.5,1.6-1.7l0.5-0.5l-0.2-0.2c-0.1-0.1-0.5-0.5-0.8-0.8l-0.6-0.5l-0.1,0.1
	c-0.1,0.1-0.8,0.9-1.7,1.9c-1.9,2-2.5,2.7-3.8,4.1l-0.9,1l0-16.6l-0.1-0.2C39,18.4,38.4,18.1,38,18.3z"/>
</svg>
