<?xml version="1.0" encoding="utf-8"?>
<!-- Generator: Adobe Illustrator 19.1.0, SVG Export Plug-In . SVG Version: 6.00 Build 0)  -->
<svg version="1.1" id="Layer_1" xmlns="http://www.w3.org/2000/svg" xmlns:xlink="http://www.w3.org/1999/xlink" x="0px" y="0px"
	 viewBox="0 0 61 71.7" style="enable-background:new 0 0 61 71.7;" xml:space="preserve">
<style type="text/css">
	.st0{fill:#575756;}
</style>
<path class="st0" d="M9.3,30.5c0-0.5,0.4-0.9,0.9-0.9h27.6c0.5,0,0.9,0.4,0.9,0.9c0,0.5-0.4,0.9-0.9,0.9H10.1
	C9.6,31.4,9.3,31,9.3,30.5z M9.3,25.8c0-0.5,0.4-0.9,0.9-0.9h27.6c0.5,0,0.9,0.4,0.9,0.9c0,0.5-0.4,0.9-0.9,0.9H10.1
	C9.6,26.7,9.3,26.3,9.3,25.8z M9.3,58.6c0-0.5,0.4-0.9,0.9-0.9h18.5c0.5,0,0.9,0.4,0.9,0.9c0,0.5-0.4,0.9-0.9,0.9H10.1
	C9.6,59.5,9.3,59.1,9.3,58.6z M9.3,53.9c0-0.5,0.4-0.9,0.9-0.9h27.6c0.5,0,0.9,0.4,0.9,0.9c0,0.5-0.4,0.9-0.9,0.9H10.1
	C9.6,54.8,9.3,54.4,9.3,53.9z M9.3,49.2c0-0.5,0.4-0.9,0.9-0.9h27.6c0.5,0,0.9,0.4,0.9,0.9c0,0.5-0.4,0.9-0.9,0.9H10.1
	C9.6,50.1,9.3,49.7,9.3,49.2z M9.3,44.5c0-0.5,0.4-0.9,0.9-0.9h27.6c0.5,0,0.9,0.4,0.9,0.9s-0.4,0.9-0.9,0.9H10.1
	C9.6,45.4,9.3,45,9.3,44.5z M9.3,39.9c0-0.5,0.4-0.9,0.9-0.9h27.6c0.5,0,0.9,0.4,0.9,0.9c0,0.5-0.4,0.9-0.9,0.9H10.1
	C9.6,40.8,9.3,40.4,9.3,39.9z M9.3,35.2c0-0.5,0.4-0.9,0.9-0.9h27.6c0.5,0,0.9,0.4,0.9,0.9s-0.4,0.9-0.9,0.9H10.1
	C9.6,36.1,9.3,35.7,9.3,35.2z M55.6,53.3h-2.8v-43c0-1-0.8-1.8-1.8-1.8H17.8V5.7h37.7V53.3z M49.2,59.6h-2.8v-43
	c0-1-0.8-1.8-1.8-1.8H11.5V12h37.7L49.2,59.6L49.2,59.6z M42.8,66H5.1V18.4h37.7V66z M57.4,2.1H16c-1,0-1.8,0.8-1.8,1.8v4.6H9.7
	c-1,0-1.8,0.8-1.8,1.8v4.6H3.3c-1,0-1.8,0.8-1.8,1.8v51.2c0,1,0.8,1.8,1.8,1.8h41.3c1,0,1.8-0.8,1.8-1.8v-4.6H51
	c1,0,1.8-0.8,1.8-1.8v-4.6h4.6c1,0,1.8-0.8,1.8-1.8V3.9C59.1,2.9,58.3,2.1,57.4,2.1z"/>
</svg>
