<?xml version="1.0" encoding="utf-8"?>
<!-- Generator: Adobe Illustrator 19.1.0, SVG Export Plug-In . SVG Version: 6.00 Build 0)  -->
<svg version="1.1" id="Layer_1" xmlns="http://www.w3.org/2000/svg" xmlns:xlink="http://www.w3.org/1999/xlink" x="0px" y="0px"
	 viewBox="0 0 58 38" style="enable-background:new 0 0 58 38;" xml:space="preserve">
<style type="text/css">
	.st0{display:none;fill:#575756;}
	.st1{display:none;}
</style>
<path fill="#009fe3"  class="st0" d="M9.3,29.8c0-0.5,0.4-0.9,0.9-0.9h27.6c0.5,0,0.9,0.4,0.9,0.9c0,0.5-0.4,0.9-0.9,0.9H10.1
	C9.6,30.7,9.3,30.3,9.3,29.8z M9.3,25.1c0-0.5,0.4-0.9,0.9-0.9h27.6c0.5,0,0.9,0.4,0.9,0.9c0,0.5-0.4,0.9-0.9,0.9H10.1
	C9.6,26,9.3,25.6,9.3,25.1z M9.3,58c0-0.5,0.4-0.9,0.9-0.9h18.5c0.5,0,0.9,0.4,0.9,0.9c0,0.5-0.4,0.9-0.9,0.9H10.1
	C9.6,58.8,9.3,58.4,9.3,58z M9.3,53.3c0-0.5,0.4-0.9,0.9-0.9h27.6c0.5,0,0.9,0.4,0.9,0.9c0,0.5-0.4,0.9-0.9,0.9H10.1
	C9.6,54.2,9.3,53.8,9.3,53.3z M9.3,48.6c0-0.5,0.4-0.9,0.9-0.9h27.6c0.5,0,0.9,0.4,0.9,0.9c0,0.5-0.4,0.9-0.9,0.9H10.1
	C9.6,49.5,9.3,49.1,9.3,48.6z M9.3,43.9c0-0.5,0.4-0.9,0.9-0.9h27.6c0.5,0,0.9,0.4,0.9,0.9c0,0.5-0.4,0.9-0.9,0.9H10.1
	C9.6,44.8,9.3,44.4,9.3,43.9z M9.3,39.2c0-0.5,0.4-0.9,0.9-0.9h27.6c0.5,0,0.9,0.4,0.9,0.9c0,0.5-0.4,0.9-0.9,0.9H10.1
	C9.6,40.1,9.3,39.7,9.3,39.2z M9.3,34.5c0-0.5,0.4-0.9,0.9-0.9h27.6c0.5,0,0.9,0.4,0.9,0.9s-0.4,0.9-0.9,0.9H10.1
	C9.6,35.4,9.3,35,9.3,34.5z M55.6,52.6h-2.8v-43c0-1-0.8-1.8-1.8-1.8H17.8V5h37.7V52.6z M49.2,59h-2.8v-43c0-1-0.8-1.8-1.8-1.8H11.5
	v-2.8h37.7L49.2,59L49.2,59z M42.8,65.3H5.1V17.7h37.7V65.3z M57.4,1.4H16c-1,0-1.8,0.8-1.8,1.8v4.6H9.7c-1,0-1.8,0.8-1.8,1.8v4.6
	H3.3c-1,0-1.8,0.8-1.8,1.8v51.2c0,1,0.8,1.8,1.8,1.8h41.3c1,0,1.8-0.8,1.8-1.8v-4.6H51c1,0,1.8-0.8,1.8-1.8v-4.6h4.6
	c1,0,1.8-0.8,1.8-1.8V3.2C59.1,2.2,58.3,1.4,57.4,1.4z"/>
<path fill="#009fe3"  class="st1" d="M15.8,36.7c8.9,10.8,30.7,21.1,35.9,18.8c5.2-2.3,6.4-7.4,6.1-9.7c-0.2-2.3-12.1-9.4-15.1-10.8
	c-3-1.4-6.4,3-8.1,4.9c-1.7,1.8-8.3-3.7-11.2-6.4c0,0-7.5-8.4-5.8-10.2c1.7-1.8,6-5.4,4.5-8.3c-1.5-2.9-9.1-14.6-11.5-14.8
	C8.4,0.1,3.4,1.4,1.3,6.7c-2.1,5.3,7.9,25.6,19.1,34.1"/>
<g>
	<polygon fill="#009fe3"  points="29,26.2 1.1,6.3 1.1,36.8 57,36.8 57,6.3 	"/>
	<polygon  fill="#009fe3" points="56.7,1 1.3,1 29,20.6 	"/>
</g>
</svg>
