<?xml version="1.0" encoding="utf-8"?>
<!-- Generator: Adobe Illustrator 19.1.0, SVG Export Plug-In . SVG Version: 6.00 Build 0)  -->
<svg version="1.1" id="Layer_1" xmlns="http://www.w3.org/2000/svg" xmlns:xlink="http://www.w3.org/1999/xlink" x="0px" y="0px"
	 viewBox="0 187.8 960 184.2" enable-background="new 0 187.8 960 184.2" xml:space="preserve">
<rect y="187.8" display="none" fill="#00A0E4" width="286" height="183.2"/>
<g display="none">
	<rect x="252.9" y="187.9" display="inline" fill="#00A0E4" width="707.1" height="183.3"/>
	<path display="inline" fill="#FFFFFF" d="M360,288.7h-28.3l14.1-32.1L360,288.7z M369.7,310.6h8.4l-27.4-62.1H341l-27.4,62.1h8.4
		l6.5-14.8h34.6L369.7,310.6z"/>
	<path display="inline" fill="#FFFFFF" d="M408.5,310.6h37.7v-7.4h-29.7v-54.7h-8V310.6z"/>
	<path display="inline" fill="#FFFFFF" d="M485.6,310.6h8v-55h19.7v-7.1h-47.5v7.1h19.7V310.6z"/>
	<path display="inline" fill="#FFFFFF" d="M578.8,288.7h-28.3l14.1-32.1L578.8,288.7z M588.5,310.6h8.4l-27.4-62.1h-9.8l-27.4,62.1
		h8.4l6.5-14.8H582L588.5,310.6z"/>
	<path display="inline" fill="#FFFFFF" d="M633.5,300.8h16.4c3.8,0,6.8-0.6,8.8-1.8c2-1.2,3.1-3.5,3.1-6.9c0-5.5-4.4-8.2-13.2-8.2
		h-15V300.8z M633.5,274.3h13.3c7.6,0,11.3-2.6,11.3-7.7c0-2.9-0.9-5.1-2.8-6.4c-1.8-1.3-4.7-1.9-8.5-1.9h-13.4V274.3z M650.2,310.4
		h-27.1v-61.8h24.1c4.2,0,7.8,0.5,10.8,1.5c3,1,5.3,2.4,6.8,4.1c2.8,3.2,4.3,6.8,4.3,10.8c0,4.8-1.5,8.4-4.6,10.8
		c-1.1,0.8-1.9,1.3-2.3,1.5c-0.4,0.2-1.2,0.6-2.2,1c3.8,0.8,6.9,2.5,9.2,5.2c2.3,2.6,3.4,5.9,3.4,9.8c0,4.3-1.5,8.1-4.4,11.4
		C664.5,308.5,658.6,310.4,650.2,310.4z"/>
	<path display="inline" fill="#FFFFFF" d="M702.2,310.4v-61.8h10.4v51.9h28.2v9.9H702.2z"/>
	<path display="inline" fill="#FFFFFF" d="M781.3,295.8c2.8,3.3,6.7,4.9,11.5,4.9c4.8,0,8.7-1.6,11.5-4.9c2.8-3.3,4.3-7.7,4.3-13.3
		v-33.9H819v34.3c0,8.8-2.5,15.6-7.3,20.4c-4.9,4.8-11.2,7.1-18.8,7.1c-7.7,0-14-2.4-18.8-7.1c-4.9-4.8-7.3-11.5-7.3-20.4v-34.3H777
		v33.9C777,288.1,778.4,292.5,781.3,295.8z"/>
	<path display="inline" fill="#FFFFFF" d="M895.4,248.6v9.8h-33v16.4H892v9.3h-29.6v16.5h34.1v9.8H852v-61.8H895.4z"/>
</g>
<g>
	<g>
		<path fill="#FFFFFF" d="M959,370.9H252.8V187.8H959V370.9z M255.5,368.3h700.8V190.4H255.5V368.3z"/>
	</g>
	<g>
		<path fill="#FFFFFF" d="M369.4,310.4h8.4l-27.2-62.1h-9.7l-27.5,62.1h8.4l6.5-14.7h34.5L369.4,310.4z M359.8,288.5h-28.3
			l14.1-32.1L359.8,288.5z"/>
		<polygon fill="#FFFFFF" points="408.2,310.4 445.8,310.4 445.8,303 416.2,303 416.2,248.4 408.2,248.4 		"/>
		<polygon fill="#FFFFFF" points="485.3,310.4 493.2,310.4 493.2,255.4 512.9,255.4 512.9,248.4 465.5,248.4 465.5,255.4 
			485.3,255.4 		"/>
		<path fill="#FFFFFF" d="M587.9,310.4h8.4L569,248.4h-9.7l-27.3,62.1h8.4l6.5-14.7h34.6L587.9,310.4z M578.3,288.5H550l14.1-32.1
			L578.3,288.5z"/>
		<g>
			<path fill="#FFFFFF" d="M649.6,310.3h-27v-61.8h24.1c4.2,0,7.8,0.5,10.8,1.5c3,0.9,5.3,2.3,6.8,4.1c2.8,3.2,4.2,6.8,4.2,10.8
				c0,4.9-1.5,8.4-4.6,10.8c-1.1,0.8-1.9,1.4-2.3,1.5c-0.4,0.3-1.2,0.5-2.2,1.1c3.8,0.8,6.9,2.6,9.2,5.1s3.4,5.8,3.4,9.7
				c0,4.3-1.5,8.1-4.5,11.4C663.9,308.3,658,310.3,649.6,310.3 M632.9,274.1h13.3c7.6,0,11.4-2.6,11.4-7.7c0-3-0.9-5-2.7-6.4
				s-4.6-1.9-8.5-1.9h-13.4V274.1z M632.9,300.6h16.4c3.8,0,6.8-0.7,8.8-1.8c2-1.2,3.1-3.5,3.1-6.9c0-5.5-4.3-8.2-13.1-8.2h-15v16.9
				H632.9z"/>
			<polygon fill="#FFFFFF" points="701.5,310.3 701.5,248.5 711.9,248.5 711.9,300.3 740.2,300.3 740.2,310.3 			"/>
			<path fill="#FFFFFF" d="M780.5,295.7c2.8,3.2,6.6,4.9,11.5,4.9c4.9,0,8.7-1.6,11.5-4.9s4.2-7.7,4.2-13.3v-33.8h10.4V283
				c0,8.8-2.4,15.6-7.3,20.3c-4.9,4.7-11.2,7.2-18.8,7.2c-7.7,0-13.9-2.4-18.8-7.2c-4.9-4.7-7.3-11.5-7.3-20.3v-34.5h10.4v33.8
				C776.3,288,777.6,292.3,780.5,295.7"/>
			<polygon fill="#FFFFFF" points="894.5,248.5 894.5,258.2 861.5,258.2 861.5,274.6 891.1,274.6 891.1,283.9 861.5,283.9 
				861.5,300.4 895.6,300.4 895.6,310.3 851.1,310.3 851.1,248.5 			"/>
		</g>
	</g>
</g>
</svg>
