<?xml version="1.0" standalone="no"?>
<!DOCTYPE svg PUBLIC "-//W3C//DTD SVG 1.1//EN" "http://www.w3.org/Graphics/SVG/1.1/DTD/svg11.dtd">
<svg width="100%" height="100%" viewBox="0 0 635 122" version="1.1" xmlns="http://www.w3.org/2000/svg" xmlns:xlink="http://www.w3.org/1999/xlink" xml:space="preserve" style="fill-rule:evenodd;clip-rule:evenodd;stroke-linejoin:round;stroke-miterlimit:1.41421;">
    <rect x="0" y="0" width="189.18" height="121.206" style="fill:#00a0e4;"/>
    <g>
        <rect x="167.27" y="0.061" width="467.69" height="121.241" style="fill:#00a0e4;fill-rule:nonzero;"/>
        <path d="M238.124,66.73L219.419,66.73L228.768,45.521L238.124,66.73ZM244.517,81.25L250.101,81.25L232.003,40.174L225.538,40.174L207.438,81.25L213.023,81.25L217.336,71.456L240.203,71.456L244.517,81.25Z" style="fill:#fff;fill-rule:nonzero;"/>
        <path d="M270.184,81.25L295.121,81.25L295.121,76.341L275.464,76.341L275.464,40.174L270.184,40.174L270.184,81.25Z" style="fill:#fff;fill-rule:nonzero;"/>
        <path d="M321.203,81.25L326.481,81.25L326.481,44.838L339.543,44.838L339.543,40.174L308.14,40.174L308.14,44.838L321.203,44.838L321.203,81.25Z" style="fill:#fff;fill-rule:nonzero;"/>
        <path d="M382.857,66.73L364.153,66.73L373.507,45.521L382.857,66.73ZM389.251,81.25L394.837,81.25L376.738,40.174L370.272,40.174L352.171,81.25L357.76,81.25L362.074,71.456L384.937,71.456L389.251,81.25Z" style="fill:#fff;fill-rule:nonzero;"/>
        <path d="M419.05,74.759L429.875,74.759C432.411,74.759 434.351,74.354 435.696,73.559C437.046,72.758 437.715,71.245 437.715,69.022C437.715,65.39 434.812,63.578 428.996,63.578L419.05,63.578L419.05,74.759ZM419.05,57.197L427.825,57.197C432.82,57.197 435.32,55.502 435.32,52.106C435.32,50.157 434.714,48.754 433.5,47.894C432.297,47.035 430.421,46.607 427.882,46.607L419.05,46.607L419.05,57.197ZM430.048,81.136L412.143,81.136L412.143,40.226L428.062,40.226C430.832,40.226 433.219,40.56 435.23,41.222C437.234,41.888 438.732,42.783 439.704,43.911C441.578,46.022 442.516,48.403 442.516,51.056C442.516,54.254 441.499,56.632 439.473,58.197C438.732,58.741 438.222,59.084 437.95,59.215C437.678,59.356 437.188,59.582 436.486,59.893C439.022,60.438 441.043,61.577 442.544,63.315C444.046,65.05 444.794,67.208 444.794,69.781C444.794,72.628 443.823,75.143 441.871,77.331C439.567,79.866 435.629,81.136 430.048,81.136Z" style="fill:#fff;fill-rule:nonzero;"/>
        <path d="M464.462,81.136L464.462,40.227L471.37,40.227L471.37,74.582L490.033,74.582L490.033,81.136L464.462,81.136Z" style="fill:#fff;fill-rule:nonzero;"/>
        <path d="M516.782,71.46C518.655,73.623 521.185,74.706 524.39,74.706C527.587,74.706 530.124,73.623 531.995,71.46C533.869,69.296 534.807,66.36 534.807,62.653L534.807,40.227L541.712,40.227L541.712,62.941C541.712,68.776 540.089,73.265 536.855,76.412C533.613,79.558 529.46,81.136 524.39,81.136C519.315,81.136 515.161,79.558 511.922,76.412C508.683,73.265 507.066,68.776 507.066,62.941L507.066,40.227L513.967,40.227L513.967,62.653C513.967,66.36 514.909,69.296 516.782,71.46Z" style="fill:#fff;fill-rule:nonzero;"/>
        <path d="M592.277,40.227L592.277,46.723L570.447,46.723L570.447,57.554L590.049,57.554L590.049,63.693L570.447,63.693L570.447,74.638L592.973,74.638L592.973,81.136L563.541,81.136L563.541,40.227L592.277,40.227Z" style="fill:#fff;fill-rule:nonzero;"/>
    </g>
</svg>
