<?xml version="1.0" encoding="utf-8"?>
<!-- Generator: Adobe Illustrator 19.1.0, SVG Export Plug-In . SVG Version: 6.00 Build 0)  -->
<svg version="1.1" id="Layer_1" xmlns="http://www.w3.org/2000/svg" xmlns:xlink="http://www.w3.org/1999/xlink" x="0px" y="0px"
	 viewBox="-726 727 46 32.5" style="enable-background:new -726 727 46 32.5;" xml:space="preserve">
<style type="text/css">
	.st0{fill-rule:evenodd;clip-rule:evenodd;fill:#FFFFFF;}
</style>
<path class="st0" d="M-695.8,749.5c-2.3,0-4.1,1.8-4.1,4.1c0,2.3,1.8,4.1,4.1,4.1c2.3,0,4.1-1.8,4.1-4.1
	C-691.7,751.3-693.6,749.5-695.8,749.5z M-722.5,745.4h22.5c1.1,0,2-0.9,2-2c0-1.1-0.9-2-2-2h-22.5c-1.1,0-2,0.9-2,2
	C-724.5,744.4-723.6,745.4-722.5,745.4z M-704,751.5h-18.4c-1.1,0-2,0.9-2,2c0,1.1,0.9,2,2,2h18.4c1.1,0,2-0.9,2-2
	C-702,752.4-702.9,751.5-704,751.5z M-684.6,729c-0.8,0-1,0-1,0h-34.8c0,0-0.3,0-1,0c-1.7,0-3.1,1.4-3.1,3.1c0,1.7,1.4,3.1,3.1,3.1
	c0.8,0,1,0,1,0h34.8c0,0,0.3,0,1,0c1.7,0,3.1-1.4,3.1-3.1C-681.5,730.4-682.9,729-684.6,729z"/>
</svg>
