<?xml version="1.0" encoding="utf-8"?>
<!-- Generator: Adobe Illustrator 19.1.0, SVG Export Plug-In . SVG Version: 6.00 Build 0)  -->
<svg version="1.1" id="Layer_1" xmlns="http://www.w3.org/2000/svg" xmlns:xlink="http://www.w3.org/1999/xlink" x="0px" y="0px"
	 viewBox="0 0 108.5 108.3" style="enable-background:new 0 0 108.5 108.3;" xml:space="preserve">
<style type="text/css">
	.st0{fill:#FFFFFF;}
	.st1{fill:none;stroke:#FFFFFF;stroke-width:3;stroke-miterlimit:10;}
</style>
<g>
	<path class="st0" d="M62.9,52.2c3.4-2.5,5.7-6.7,5.7-11.3c0-7.7-6.2-14-13.9-14s-13.9,6.2-13.9,13.9c0,4.6,2.2,8.9,5.7,11.4
		C38.6,55.4,33,63.4,33,72.4c0,12,43.3,12,43.3,0C76.3,63.4,70.7,55.4,62.9,52.2z"/>
	<path class="st0" d="M78.8,52.5c2.5-1.9,4.2-4.9,4.2-8.3C83,38.6,78.4,34,72.8,34c-1.3,0-2.5,0.2-3.6,0.7c0.8,1.9,1.2,4,1.2,6.2
		c0,4-1.5,7.9-4.2,10.8c7.3,4.1,11.9,11.9,11.9,20.6c0,0.3,0,0.7-0.1,1.1c5.8-0.7,10.6-2.7,10.6-6C88.7,60.3,84.6,54.9,78.8,52.5z"
		/>
	<path class="st0" d="M31.2,72.3c0-8.6,4.4-16.2,11.6-20.4c0.1-0.1,0.2-0.2,0.3-0.3c-2.6-2.9-4.1-6.7-4.1-10.8c0-2.1,0.4-4,1.1-5.9
		c-1.3-0.6-2.7-0.9-4.2-0.9c-5.6,0-10.2,4.6-10.2,10.2c0,3.4,1.6,6.4,4.2,8.3c-5.8,2.3-9.9,7.8-9.9,14.8c0,3.4,5.2,5.4,11.3,6.1
		C31.2,73,31.2,72.6,31.2,72.3z"/>
</g>
<circle class="st1" cx="54.3" cy="54.2" r="51.2"/>
</svg>
