<?xml version="1.0" encoding="utf-8"?>
<!-- Generator: Adobe Illustrator 19.1.0, SVG Export Plug-In . SVG Version: 6.00 Build 0)  -->
<svg version="1.1" id="Layer_1" xmlns="http://www.w3.org/2000/svg" xmlns:xlink="http://www.w3.org/1999/xlink" x="0px" y="0px"
	 viewBox="0 0 29 45" enable-background="new 0 0 29 45" xml:space="preserve">
<path fill="#009FE3" d="M14.5,19.7c-3.1,0-5.6-2.5-5.6-5.6c0-3.1,2.5-5.6,5.6-5.6c3.1,0,5.6,2.5,5.6,5.6
	C20.1,17.2,17.6,19.7,14.5,19.7z M24.5,4.1C19-1.4,10.1-1.4,4.6,4.1c-5.5,5.5-5.5,14.4,0,19.9c0,0,9.9,9.7,9.9,21
	c0-11.2,9.9-21,9.9-21C30,18.5,30,9.6,24.5,4.1z"/>
</svg>
