<?xml version="1.0" encoding="utf-8"?>
<!-- Generator: Adobe Illustrator 19.1.0, SVG Export Plug-In . SVG Version: 6.00 Build 0)  -->
<svg version="1.1" id="Layer_1" xmlns="http://www.w3.org/2000/svg" xmlns:xlink="http://www.w3.org/1999/xlink" x="0px" y="0px"
	 viewBox="0 0 46 47" enable-background="new 0 0 46 47" xml:space="preserve">
<path fill="#FFFFFF" d="M18.8,7.8c-3,0-5.8,1.2-7.9,3.3c-2.1,2.1-3.3,4.9-3.3,7.9c0,3,1.2,5.8,3.3,7.9c2.1,2.1,4.9,3.3,7.9,3.3
	c3,0,5.8-1.2,7.9-3.3c4.4-4.4,4.4-11.4,0-15.8C24.6,8.9,21.8,7.8,18.8,7.8z M18.8,32.3c-3.6,0-6.9-1.4-9.5-3.9
	c-2.5-2.5-3.9-5.9-3.9-9.5S6.8,12,9.4,9.4c2.5-2.5,5.9-3.9,9.5-3.9s7,1.4,9.5,3.9c5.2,5.2,5.2,13.7,0,19
	C25.8,30.9,22.4,32.3,18.8,32.3z"/>
<path fill="#FFFFFF" d="M41,42.2c-0.3,0-0.6-0.1-0.8-0.3L26.7,28.4c-0.4-0.4-0.4-1.2,0-1.6c0.4-0.4,1.2-0.4,1.6,0l13.5,13.5
	c0.4,0.4,0.4,1.2,0,1.6C41.6,42.1,41.3,42.2,41,42.2z"/>
</svg>
